<?xml version='1.0' encoding='utf-8'?>
<svg xmlns="http://www.w3.org/2000/svg" version="1.1" width="8cm" height="257cm" viewBox="1 -128 8 257"><rect x="1" y="-128" width="8" height="257" fill="white" /><path d="M 0 130 L 1 131 L 2 132" stroke="black" fill="none" stroke-width="1" /><path d="M 2 132 L 2 133 L 3 134 L 3 135 L 3 136 L 4 137 L 4 138" stroke="black" fill="none" stroke-width="1" /><path d="M 4 138 L 4 139 L 4 140 L 4 141 L 5 142 L 5 143 L 5 144 L 5 145 L 5 146 L 5 147 L 6 148 L 6 149 L 6 150 L 6 151 L 6 152 L 6 153 L 6 154 L 7 155 L 7 156 L 7 157 L 7 158 L 7 159 L 7 160 L 8 161 L 8 162 L 8 163 L 8 164" stroke="black" fill="none" stroke-width="1" /><circle cx="0" cy="130" r="1" fill="black" /><circle cx="2" cy="132" r="1" fill="black" /><circle cx="4" cy="138" r="1" fill="black" /><circle cx="8" cy="164" r="1" fill="black" /></svg>