<?xml version='1.0' encoding='utf-8'?>
<svg xmlns="http://www.w3.org/2000/svg" version="1.1" width="15cm" height="256cm" viewBox="2 1 15 256"><rect x="2" y="1" width="15" height="256" fill="white" /><path d="M 0 2 L 0 3 L 0 4 L 0 5 L 1 6 L 1 7 L 1 8 L 1 9 L 1 10 L 1 11 L 2 12 L 2 13 L 2 14" stroke="black" fill="none" stroke-width="1" /><path d="M 2 14 L 2 15 L 2 16 L 2 17 L 2 18 L 2 19 L 3 20 L 3 21 L 3 22 L 3 23 L 3 24 L 3 25 L 3 26 L 3 27 L 3 28 L 3 29 L 3 30 L 4 31 L 4 32 L 4 33 L 4 34 L 4 35 L 4 36 L 4 37 L 4 38 L 4 39 L 4 40 L 4 41 L 5 42 L 5 43 L 5 44 L 5 45 L 5 46 L 5 47 L 5 48 L 5 49 L 5 50 L 5 51 L 5 52 L 6 53 L 6 54 L 6 55 L 6 56 L 6 57 L 6 58" stroke="black" fill="none" stroke-width="1" /><path d="M 6 58 L 6 59 L 6 60 L 6 61 L 6 62 L 6 63 L 6 64 L 6 65 L 6 66 L 6 67 L 6 68 L 7 69 L 7 70 L 7 71 L 7 72 L 7 73 L 7 74 L 7 75 L 7 76 L 7 77 L 7 78 L 7 79 L 7 80 L 7 81 L 7 82 L 7 83 L 7 84 L 7 85 L 7 86 L 7 87 L 7 88 L 7 89 L 7 90 L 8 91 L 8 92 L 8 93 L 8 94 L 8 95 L 8 96 L 8 97 L 8 98 L 8 99 L 8 100 L 8 101 L 8 102 L 8 103 L 8 104 L 8 105 L 8 106 L 8 107 L 8 108 L 8 109 L 8 110 L 8 111 L 9 112 L 9 113 L 9 114 L 9 115 L 9 116 L 9 117 L 9 118 L 9 119 L 9 120 L 9 121 L 9 122 L 9 123 L 9 124 L 9 125 L 9 126 L 9 127 L 9 128 L 9 129 L 9 130 L 9 131 L 9 132 L 9 133 L 10 134 L 10 135 L 10 136 L 10 137 L 10 138 L 10 139 L 10 140 L 10 141 L 10 142 L 10 143 L 10 144 L 10 145 L 10 146 L 10 147 L 10 148 L 10 149 L 10 150 L 10 151 L 10 152 L 10 153 L 10 154 L 11 155 L 11 156 L 11 157 L 11 158 L 11 159 L 11 160 L 11 161 L 11 162 L 11 163 L 11 164 L 11 165 L 11 166 L 11 167 L 11 168 L 11 169 L 11 170 L 11 171 L 11 172 L 11 173 L 11 174 L 11 175 L 11 176 L 12 177 L 12 178 L 12 179 L 12 180 L 12 181 L 12 182 L 12 183 L 12 184 L 12 185 L 12 186 L 12 187 L 12 188 L 12 189 L 12 190 L 12 191 L 12 192 L 12 193 L 12 194 L 12 195 L 12 196 L 12 197 L 13 198 L 13 199 L 13 200 L 13 201 L 13 202 L 13 203 L 13 204 L 13 205 L 13 206 L 13 207 L 13 208 L 13 209 L 13 210 L 13 211 L 13 212 L 13 213 L 13 214 L 13 215 L 13 216 L 13 217 L 13 218 L 13 219 L 14 220 L 14 221 L 14 222 L 14 223 L 14 224 L 14 225 L 14 226 L 14 227 L 14 228 L 14 229 L 14 230" stroke="black" fill="none" stroke-width="1" /><circle cx="0" cy="2" r="1" fill="black" /><circle cx="2" cy="14" r="1" fill="black" /><circle cx="6" cy="58" r="1" fill="black" /><circle cx="14" cy="230" r="1" fill="black" /></svg>