<?xml version='1.0' encoding='utf-8'?>
<svg xmlns="http://www.w3.org/2000/svg" version="1.1" width="8cm" height="257cm" viewBox="1 -128 8 257"><rect x="1" y="-128" width="8" height="257" fill="white" /><path d="M 0 130 L 1 131 L 2 132" stroke="black" fill="none" stroke-width="1" /><path d="M 2 132 L 2 133 L 2 134 L 3 135 L 3 136 L 3 137 L 3 138 L 3 139 L 4 140 L 4 141 L 4 142" stroke="black" fill="none" stroke-width="1" /><path d="M 4 142 L 4 143 L 4 144 L 4 145 L 4 146 L 5 147 L 5 148 L 5 149 L 5 150 L 5 151 L 5 152 L 5 153 L 5 154 L 5 155 L 5 156 L 6 157 L 6 158 L 6 159 L 6 160 L 6 161 L 6 162 L 6 163 L 6 164 L 6 165 L 7 166 L 7 167 L 7 168 L 7 169 L 7 170 L 7 171 L 7 172 L 7 173 L 7 174 L 7 175 L 8 176 L 8 177 L 8 178 L 8 179 L 8 180" stroke="black" fill="none" stroke-width="1" /><circle cx="0" cy="130" r="1" fill="black" /><circle cx="2" cy="132" r="1" fill="black" /><circle cx="4" cy="142" r="1" fill="black" /><circle cx="8" cy="180" r="1" fill="black" /></svg>