<?xml version='1.0' encoding='utf-8'?>
<svg xmlns="http://www.w3.org/2000/svg" version="1.1" width="15cm" height="256cm" viewBox="2 1 15 256"><rect x="2" y="1" width="15" height="256" fill="white" /><path d="M 0 2 L 0 3 L 1 4 L 1 5 L 1 6 L 2 7 L 2 8" stroke="black" fill="none" stroke-width="1" /><path d="M 2 8 L 2 9 L 2 10 L 2 11 L 2 12 L 3 13 L 3 14 L 3 15 L 3 16 L 3 17 L 3 18 L 3 19 L 3 20 L 4 21 L 4 22 L 4 23 L 4 24 L 4 25 L 4 26 L 4 27 L 4 28 L 4 29 L 5 30 L 5 31 L 5 32 L 5 33 L 5 34 L 5 35 L 5 36 L 5 37 L 6 38 L 6 39 L 6 40 L 6 41 L 6 42" stroke="black" fill="none" stroke-width="1" /><path d="M 6 42 L 6 43 L 6 44 L 6 45 L 6 46 L 6 47 L 6 48 L 6 49 L 7 50 L 7 51 L 7 52 L 7 53 L 7 54 L 7 55 L 7 56 L 7 57 L 7 58 L 7 59 L 7 60 L 7 61 L 7 62 L 7 63 L 7 64 L 8 65 L 8 66 L 8 67 L 8 68 L 8 69 L 8 70 L 8 71 L 8 72 L 8 73 L 8 74 L 8 75 L 8 76 L 8 77 L 8 78 L 8 79 L 8 80 L 9 81 L 9 82 L 9 83 L 9 84 L 9 85 L 9 86 L 9 87 L 9 88 L 9 89 L 9 90 L 9 91 L 9 92 L 9 93 L 9 94 L 9 95 L 10 96 L 10 97 L 10 98 L 10 99 L 10 100 L 10 101 L 10 102 L 10 103 L 10 104 L 10 105 L 10 106 L 10 107 L 10 108 L 10 109 L 10 110 L 11 111 L 11 112 L 11 113 L 11 114 L 11 115 L 11 116 L 11 117 L 11 118 L 11 119 L 11 120 L 11 121 L 11 122 L 11 123 L 11 124 L 11 125 L 12 126 L 12 127 L 12 128 L 12 129 L 12 130 L 12 131 L 12 132 L 12 133 L 12 134 L 12 135 L 12 136 L 12 137 L 12 138 L 12 139 L 12 140 L 12 141 L 13 142 L 13 143 L 13 144 L 13 145 L 13 146 L 13 147 L 13 148 L 13 149 L 13 150 L 13 151 L 13 152 L 13 153 L 13 154 L 13 155 L 13 156 L 14 157 L 14 158 L 14 159 L 14 160 L 14 161 L 14 162 L 14 163 L 14 164" stroke="black" fill="none" stroke-width="1" /><circle cx="0" cy="2" r="1" fill="black" /><circle cx="2" cy="8" r="1" fill="black" /><circle cx="6" cy="42" r="1" fill="black" /><circle cx="14" cy="164" r="1" fill="black" /></svg>