<?xml version='1.0' encoding='utf-8'?>
<svg xmlns="http://www.w3.org/2000/svg" version="1.1" width="8cm" height="257cm" viewBox="1 -128 8 257"><rect x="1" y="-128" width="8" height="257" fill="white" /><path d="M 0 130 L 1 130 L 2 130" stroke="black" fill="none" stroke-width="1" /><path d="M 2 130 L 3 130 L 4 130" stroke="black" fill="none" stroke-width="1" /><path d="M 4 130 L 4 131 L 4 132 L 5 133 L 5 134 L 5 135 L 5 136 L 6 137 L 6 138 L 6 139 L 6 140 L 6 141 L 7 142 L 7 143 L 7 144 L 7 145 L 8 146 L 8 147 L 8 148" stroke="black" fill="none" stroke-width="1" /><circle cx="0" cy="130" r="1" fill="black" /><circle cx="2" cy="130" r="1" fill="black" /><circle cx="4" cy="130" r="1" fill="black" /><circle cx="8" cy="148" r="1" fill="black" /></svg>