<?xml version='1.0' encoding='utf-8'?>
<svg xmlns="http://www.w3.org/2000/svg" version="1.1" width="15cm" height="256cm" viewBox="2 1 15 256"><rect x="2" y="1" width="15" height="256" fill="white" /><path d="M 0 2 L 0 3 L 0 4 L 1 5 L 1 6 L 1 7 L 1 8 L 2 9 L 2 10" stroke="black" fill="none" stroke-width="1" /><path d="M 2 10 L 2 11 L 2 12 L 2 13 L 3 14 L 3 15 L 3 16 L 3 17 L 3 18 L 3 19 L 3 20 L 4 21 L 4 22 L 4 23 L 4 24 L 4 25 L 4 26 L 4 27 L 5 28 L 5 29 L 5 30 L 5 31 L 5 32 L 5 33 L 5 34 L 6 35 L 6 36 L 6 37 L 6 38" stroke="black" fill="none" stroke-width="1" /><path d="M 6 38 L 6 39 L 6 40 L 6 41 L 6 42 L 6 43 L 6 44 L 6 45 L 7 46 L 7 47 L 7 48 L 7 49 L 7 50 L 7 51 L 7 52 L 7 53 L 7 54 L 7 55 L 7 56 L 7 57 L 7 58 L 7 59 L 8 60 L 8 61 L 8 62 L 8 63 L 8 64 L 8 65 L 8 66 L 8 67 L 8 68 L 8 69 L 8 70 L 8 71 L 8 72 L 8 73 L 9 74 L 9 75 L 9 76 L 9 77 L 9 78 L 9 79 L 9 80 L 9 81 L 9 82 L 9 83 L 9 84 L 9 85 L 9 86 L 9 87 L 10 88 L 10 89 L 10 90 L 10 91 L 10 92 L 10 93 L 10 94 L 10 95 L 10 96 L 10 97 L 10 98 L 10 99 L 10 100 L 10 101 L 10 102 L 11 103 L 11 104 L 11 105 L 11 106 L 11 107 L 11 108 L 11 109 L 11 110 L 11 111 L 11 112 L 11 113 L 11 114 L 11 115 L 11 116 L 12 117 L 12 118 L 12 119 L 12 120 L 12 121 L 12 122 L 12 123 L 12 124 L 12 125 L 12 126 L 12 127 L 12 128 L 12 129 L 12 130 L 13 131 L 13 132 L 13 133 L 13 134 L 13 135 L 13 136 L 13 137 L 13 138 L 13 139 L 13 140 L 13 141 L 13 142 L 13 143 L 13 144 L 14 145 L 14 146 L 14 147 L 14 148 L 14 149 L 14 150 L 14 151 L 14 152" stroke="black" fill="none" stroke-width="1" /><circle cx="0" cy="2" r="1" fill="black" /><circle cx="2" cy="10" r="1" fill="black" /><circle cx="6" cy="38" r="1" fill="black" /><circle cx="14" cy="152" r="1" fill="black" /></svg>