<?xml version='1.0' encoding='utf-8'?>
<svg xmlns="http://www.w3.org/2000/svg" version="1.1" width="8cm" height="257cm" viewBox="1 -128 8 257"><rect x="1" y="-128" width="8" height="257" fill="white" /><path d="M 0 130 L 1 130 L 2 130" stroke="black" fill="none" stroke-width="1" /><path d="M 2 130 L 2 131 L 3 132 L 3 133 L 3 134 L 4 135 L 4 136" stroke="black" fill="none" stroke-width="1" /><path d="M 4 136 L 4 137 L 4 138 L 4 139 L 5 140 L 5 141 L 5 142 L 5 143 L 5 144 L 5 145 L 6 146 L 6 147 L 6 148 L 6 149 L 6 150 L 6 151 L 7 152 L 7 153 L 7 154 L 7 155 L 7 156 L 7 157 L 8 158 L 8 159 L 8 160" stroke="black" fill="none" stroke-width="1" /><circle cx="0" cy="130" r="1" fill="black" /><circle cx="2" cy="130" r="1" fill="black" /><circle cx="4" cy="136" r="1" fill="black" /><circle cx="8" cy="160" r="1" fill="black" /></svg>