<?xml version='1.0' encoding='utf-8'?>
<svg xmlns="http://www.w3.org/2000/svg" version="1.1" width="8cm" height="257cm" viewBox="1 -128 8 257"><rect x="1" y="-128" width="8" height="257" fill="white" /><path d="M 0 130 L 0 131 L 1 132 L 1 133 L 1 134 L 2 135 L 2 136" stroke="black" fill="none" stroke-width="1" /><path d="M 2 136 L 2 137 L 2 138 L 2 139 L 2 140 L 2 141 L 3 142 L 3 143 L 3 144 L 3 145 L 3 146 L 3 147 L 3 148 L 3 149 L 3 150 L 3 151 L 4 152 L 4 153 L 4 154 L 4 155 L 4 156" stroke="black" fill="none" stroke-width="1" /><path d="M 4 156 L 4 157 L 4 158 L 4 159 L 4 160 L 4 161 L 4 162 L 4 163 L 4 164 L 4 165 L 5 166 L 5 167 L 5 168 L 5 169 L 5 170 L 5 171 L 5 172 L 5 173 L 5 174 L 5 175 L 5 176 L 5 177 L 5 178 L 5 179 L 5 180 L 5 181 L 5 182 L 5 183 L 5 184 L 5 185 L 6 186 L 6 187 L 6 188 L 6 189 L 6 190 L 6 191 L 6 192 L 6 193 L 6 194 L 6 195 L 6 196 L 6 197 L 6 198 L 6 199 L 6 200 L 6 201 L 6 202 L 6 203 L 6 204 L 7 205 L 7 206 L 7 207 L 7 208 L 7 209 L 7 210 L 7 211 L 7 212 L 7 213 L 7 214 L 7 215 L 7 216 L 7 217 L 7 218 L 7 219 L 7 220 L 7 221 L 7 222 L 7 223 L 7 224 L 8 225 L 8 226 L 8 227 L 8 228 L 8 229 L 8 230 L 8 231 L 8 232 L 8 233 L 8 234" stroke="black" fill="none" stroke-width="1" /><circle cx="0" cy="130" r="1" fill="black" /><circle cx="2" cy="136" r="1" fill="black" /><circle cx="4" cy="156" r="1" fill="black" /><circle cx="8" cy="234" r="1" fill="black" /></svg>