<?xml version='1.0' encoding='utf-8'?>
<svg xmlns="http://www.w3.org/2000/svg" version="1.1" width="8cm" height="257cm" viewBox="1 -128 8 257"><rect x="1" y="-128" width="8" height="257" fill="white" /><path d="M 0 130 L 0 131 L 1 132 L 1 133 L 1 134 L 2 135 L 2 136" stroke="black" fill="none" stroke-width="1" /><path d="M 2 136 L 2 137 L 2 138 L 2 139 L 2 140 L 2 141 L 2 142 L 3 143 L 3 144 L 3 145 L 3 146 L 3 147 L 3 148 L 3 149 L 3 150 L 3 151 L 3 152 L 3 153 L 3 154 L 4 155 L 4 156 L 4 157 L 4 158 L 4 159 L 4 160" stroke="black" fill="none" stroke-width="1" /><path d="M 4 160 L 4 161 L 4 162 L 4 163 L 4 164 L 4 165 L 4 166 L 4 167 L 4 168 L 4 169 L 4 170 L 4 171 L 5 172 L 5 173 L 5 174 L 5 175 L 5 176 L 5 177 L 5 178 L 5 179 L 5 180 L 5 181 L 5 182 L 5 183 L 5 184 L 5 185 L 5 186 L 5 187 L 5 188 L 5 189 L 5 190 L 5 191 L 5 192 L 5 193 L 5 194 L 5 195 L 6 196 L 6 197 L 6 198 L 6 199 L 6 200 L 6 201 L 6 202 L 6 203 L 6 204 L 6 205 L 6 206 L 6 207 L 6 208 L 6 209 L 6 210 L 6 211 L 6 212 L 6 213 L 6 214 L 6 215 L 6 216 L 6 217 L 6 218 L 7 219 L 7 220 L 7 221 L 7 222 L 7 223 L 7 224 L 7 225 L 7 226 L 7 227 L 7 228 L 7 229 L 7 230 L 7 231 L 7 232 L 7 233 L 7 234 L 7 235 L 7 236 L 7 237 L 7 238 L 7 239 L 7 240 L 7 241 L 7 242 L 8 243 L 8 244 L 8 245 L 8 246 L 8 247 L 8 248 L 8 249 L 8 250 L 8 251 L 8 252 L 8 253 L 8 254" stroke="black" fill="none" stroke-width="1" /><circle cx="0" cy="130" r="1" fill="black" /><circle cx="2" cy="136" r="1" fill="black" /><circle cx="4" cy="160" r="1" fill="black" /><circle cx="8" cy="254" r="1" fill="black" /></svg>