<?xml version='1.0' encoding='utf-8'?>
<svg xmlns="http://www.w3.org/2000/svg" version="1.1" width="8cm" height="257cm" viewBox="1 -128 8 257"><rect x="1" y="-128" width="8" height="257" fill="white" /><path d="M 0 130 L 1 131 L 2 132" stroke="black" fill="none" stroke-width="1" /><path d="M 2 132 L 3 133 L 4 134" stroke="black" fill="none" stroke-width="1" /><path d="M 4 134 L 4 135 L 4 136 L 5 137 L 5 138 L 5 139 L 5 140 L 5 141 L 6 142 L 6 143 L 6 144 L 6 145 L 6 146 L 7 147 L 7 148 L 7 149 L 7 150 L 7 151 L 8 152 L 8 153 L 8 154" stroke="black" fill="none" stroke-width="1" /><circle cx="0" cy="130" r="1" fill="black" /><circle cx="2" cy="132" r="1" fill="black" /><circle cx="4" cy="134" r="1" fill="black" /><circle cx="8" cy="154" r="1" fill="black" /></svg>