<?xml version='1.0' encoding='utf-8'?>
<svg xmlns="http://www.w3.org/2000/svg" version="1.1" width="15cm" height="256cm" viewBox="2 1 15 256"><rect x="2" y="1" width="15" height="256" fill="white" /><path d="M 0 4 L 0 5 L 0 6 L 1 7 L 1 8 L 1 9 L 1 10 L 2 11 L 2 12" stroke="black" fill="none" stroke-width="1" /><path d="M 2 12 L 2 13 L 2 14 L 2 15 L 2 16 L 3 17 L 3 18 L 3 19 L 3 20 L 3 21 L 3 22 L 3 23 L 3 24 L 3 25 L 3 26 L 4 27 L 4 28 L 4 29 L 4 30 L 4 31 L 4 32 L 4 33 L 4 34 L 4 35 L 5 36 L 5 37 L 5 38 L 5 39 L 5 40 L 5 41 L 5 42 L 5 43 L 5 44 L 5 45 L 6 46 L 6 47 L 6 48 L 6 49 L 6 50" stroke="black" fill="none" stroke-width="1" /><path d="M 6 50 L 6 51 L 6 52 L 6 53 L 6 54 L 6 55 L 6 56 L 6 57 L 6 58 L 6 59 L 7 60 L 7 61 L 7 62 L 7 63 L 7 64 L 7 65 L 7 66 L 7 67 L 7 68 L 7 69 L 7 70 L 7 71 L 7 72 L 7 73 L 7 74 L 7 75 L 7 76 L 7 77 L 8 78 L 8 79 L 8 80 L 8 81 L 8 82 L 8 83 L 8 84 L 8 85 L 8 86 L 8 87 L 8 88 L 8 89 L 8 90 L 8 91 L 8 92 L 8 93 L 8 94 L 8 95 L 8 96 L 9 97 L 9 98 L 9 99 L 9 100 L 9 101 L 9 102 L 9 103 L 9 104 L 9 105 L 9 106 L 9 107 L 9 108 L 9 109 L 9 110 L 9 111 L 9 112 L 9 113 L 9 114 L 10 115 L 10 116 L 10 117 L 10 118 L 10 119 L 10 120 L 10 121 L 10 122 L 10 123 L 10 124 L 10 125 L 10 126 L 10 127 L 10 128 L 10 129 L 10 130 L 10 131 L 10 132 L 10 133 L 11 134 L 11 135 L 11 136 L 11 137 L 11 138 L 11 139 L 11 140 L 11 141 L 11 142 L 11 143 L 11 144 L 11 145 L 11 146 L 11 147 L 11 148 L 11 149 L 11 150 L 11 151 L 12 152 L 12 153 L 12 154 L 12 155 L 12 156 L 12 157 L 12 158 L 12 159 L 12 160 L 12 161 L 12 162 L 12 163 L 12 164 L 12 165 L 12 166 L 12 167 L 12 168 L 12 169 L 12 170 L 13 171 L 13 172 L 13 173 L 13 174 L 13 175 L 13 176 L 13 177 L 13 178 L 13 179 L 13 180 L 13 181 L 13 182 L 13 183 L 13 184 L 13 185 L 13 186 L 13 187 L 13 188 L 14 189 L 14 190 L 14 191 L 14 192 L 14 193 L 14 194 L 14 195 L 14 196 L 14 197 L 14 198" stroke="black" fill="none" stroke-width="1" /><circle cx="0" cy="4" r="1" fill="black" /><circle cx="2" cy="12" r="1" fill="black" /><circle cx="6" cy="50" r="1" fill="black" /><circle cx="14" cy="198" r="1" fill="black" /></svg>