<?xml version='1.0' encoding='utf-8'?>
<svg xmlns="http://www.w3.org/2000/svg" version="1.1" width="15cm" height="256cm" viewBox="2 1 15 256"><rect x="2" y="1" width="15" height="256" fill="white" /><path d="M 0 4 L 0 5 L 1 6 L 1 7 L 1 8 L 2 9 L 2 10" stroke="black" fill="none" stroke-width="1" /><path d="M 2 10 L 2 11 L 2 12 L 2 13 L 3 14 L 3 15 L 3 16 L 3 17 L 3 18 L 3 19 L 3 20 L 4 21 L 4 22 L 4 23 L 4 24 L 4 25 L 4 26 L 4 27 L 5 28 L 5 29 L 5 30 L 5 31 L 5 32 L 5 33 L 5 34 L 6 35 L 6 36 L 6 37 L 6 38" stroke="black" fill="none" stroke-width="1" /><path d="M 6 38 L 6 39 L 6 40 L 6 41 L 6 42 L 6 43 L 6 44 L 7 45 L 7 46 L 7 47 L 7 48 L 7 49 L 7 50 L 7 51 L 7 52 L 7 53 L 7 54 L 7 55 L 7 56 L 8 57 L 8 58 L 8 59 L 8 60 L 8 61 L 8 62 L 8 63 L 8 64 L 8 65 L 8 66 L 8 67 L 8 68 L 8 69 L 9 70 L 9 71 L 9 72 L 9 73 L 9 74 L 9 75 L 9 76 L 9 77 L 9 78 L 9 79 L 9 80 L 9 81 L 10 82 L 10 83 L 10 84 L 10 85 L 10 86 L 10 87 L 10 88 L 10 89 L 10 90 L 10 91 L 10 92 L 10 93 L 10 94 L 11 95 L 11 96 L 11 97 L 11 98 L 11 99 L 11 100 L 11 101 L 11 102 L 11 103 L 11 104 L 11 105 L 11 106 L 12 107 L 12 108 L 12 109 L 12 110 L 12 111 L 12 112 L 12 113 L 12 114 L 12 115 L 12 116 L 12 117 L 12 118 L 12 119 L 13 120 L 13 121 L 13 122 L 13 123 L 13 124 L 13 125 L 13 126 L 13 127 L 13 128 L 13 129 L 13 130 L 13 131 L 14 132 L 14 133 L 14 134 L 14 135 L 14 136 L 14 137 L 14 138" stroke="black" fill="none" stroke-width="1" /><circle cx="0" cy="4" r="1" fill="black" /><circle cx="2" cy="10" r="1" fill="black" /><circle cx="6" cy="38" r="1" fill="black" /><circle cx="14" cy="138" r="1" fill="black" /></svg>