<?xml version='1.0' encoding='utf-8'?>
<svg xmlns="http://www.w3.org/2000/svg" version="1.1" width="8cm" height="257cm" viewBox="1 -128 8 257"><rect x="1" y="-128" width="8" height="257" fill="white" /><path d="M 0 130 L 0 131 L 1 132 L 1 133 L 2 134" stroke="black" fill="none" stroke-width="1" /><path d="M 2 134 L 2 135 L 2 136 L 2 137 L 3 138 L 3 139 L 3 140 L 3 141 L 3 142 L 3 143 L 4 144 L 4 145 L 4 146" stroke="black" fill="none" stroke-width="1" /><path d="M 4 146 L 4 147 L 4 148 L 4 149 L 4 150 L 4 151 L 4 152 L 5 153 L 5 154 L 5 155 L 5 156 L 5 157 L 5 158 L 5 159 L 5 160 L 5 161 L 5 162 L 5 163 L 5 164 L 5 165 L 6 166 L 6 167 L 6 168 L 6 169 L 6 170 L 6 171 L 6 172 L 6 173 L 6 174 L 6 175 L 6 176 L 6 177 L 6 178 L 7 179 L 7 180 L 7 181 L 7 182 L 7 183 L 7 184 L 7 185 L 7 186 L 7 187 L 7 188 L 7 189 L 7 190 L 7 191 L 8 192 L 8 193 L 8 194 L 8 195 L 8 196 L 8 197 L 8 198" stroke="black" fill="none" stroke-width="1" /><circle cx="0" cy="130" r="1" fill="black" /><circle cx="2" cy="134" r="1" fill="black" /><circle cx="4" cy="146" r="1" fill="black" /><circle cx="8" cy="198" r="1" fill="black" /></svg>