<?xml version='1.0' encoding='utf-8'?>
<svg xmlns="http://www.w3.org/2000/svg" version="1.1" width="15cm" height="256cm" viewBox="2 1 15 256"><rect x="2" y="1" width="15" height="256" fill="white" /><path d="M 0 4 L 0 5 L 0 6 L 1 7 L 1 8 L 1 9 L 1 10 L 2 11 L 2 12" stroke="black" fill="none" stroke-width="1" /><path d="M 2 12 L 2 13 L 2 14 L 2 15 L 2 16 L 3 17 L 3 18 L 3 19 L 3 20 L 3 21 L 3 22 L 3 23 L 3 24 L 4 25 L 4 26 L 4 27 L 4 28 L 4 29 L 4 30 L 4 31 L 4 32 L 4 33 L 5 34 L 5 35 L 5 36 L 5 37 L 5 38 L 5 39 L 5 40 L 5 41 L 6 42 L 6 43 L 6 44 L 6 45 L 6 46" stroke="black" fill="none" stroke-width="1" /><path d="M 6 46 L 6 47 L 6 48 L 6 49 L 6 50 L 6 51 L 6 52 L 6 53 L 6 54 L 7 55 L 7 56 L 7 57 L 7 58 L 7 59 L 7 60 L 7 61 L 7 62 L 7 63 L 7 64 L 7 65 L 7 66 L 7 67 L 7 68 L 7 69 L 7 70 L 8 71 L 8 72 L 8 73 L 8 74 L 8 75 L 8 76 L 8 77 L 8 78 L 8 79 L 8 80 L 8 81 L 8 82 L 8 83 L 8 84 L 8 85 L 8 86 L 9 87 L 9 88 L 9 89 L 9 90 L 9 91 L 9 92 L 9 93 L 9 94 L 9 95 L 9 96 L 9 97 L 9 98 L 9 99 L 9 100 L 9 101 L 9 102 L 10 103 L 10 104 L 10 105 L 10 106 L 10 107 L 10 108 L 10 109 L 10 110 L 10 111 L 10 112 L 10 113 L 10 114 L 10 115 L 10 116 L 10 117 L 10 118 L 11 119 L 11 120 L 11 121 L 11 122 L 11 123 L 11 124 L 11 125 L 11 126 L 11 127 L 11 128 L 11 129 L 11 130 L 11 131 L 11 132 L 11 133 L 11 134 L 12 135 L 12 136 L 12 137 L 12 138 L 12 139 L 12 140 L 12 141 L 12 142 L 12 143 L 12 144 L 12 145 L 12 146 L 12 147 L 12 148 L 12 149 L 12 150 L 13 151 L 13 152 L 13 153 L 13 154 L 13 155 L 13 156 L 13 157 L 13 158 L 13 159 L 13 160 L 13 161 L 13 162 L 13 163 L 13 164 L 13 165 L 13 166 L 14 167 L 14 168 L 14 169 L 14 170 L 14 171 L 14 172 L 14 173 L 14 174" stroke="black" fill="none" stroke-width="1" /><circle cx="0" cy="4" r="1" fill="black" /><circle cx="2" cy="12" r="1" fill="black" /><circle cx="6" cy="46" r="1" fill="black" /><circle cx="14" cy="174" r="1" fill="black" /></svg>