<?xml version='1.0' encoding='utf-8'?>
<svg xmlns="http://www.w3.org/2000/svg" version="1.1" width="8cm" height="257cm" viewBox="1 -128 8 257"><rect x="1" y="-128" width="8" height="257" fill="white" /><path d="M 0 126 L 1 125 L 2 124" stroke="black" fill="none" stroke-width="1" /><path d="M 2 124 L 2 123 L 3 122 L 3 121 L 4 120" stroke="black" fill="none" stroke-width="1" /><path d="M 4 120 L 4 119 L 4 118 L 4 117 L 5 116 L 5 115 L 5 114 L 5 113 L 5 112 L 5 111 L 6 110 L 6 109 L 6 108 L 6 107 L 6 106 L 6 105 L 7 104 L 7 103 L 7 102 L 7 101 L 7 100 L 7 99 L 8 98 L 8 97 L 8 96" stroke="black" fill="none" stroke-width="1" /><circle cx="0" cy="126" r="1" fill="black" /><circle cx="2" cy="124" r="1" fill="black" /><circle cx="4" cy="120" r="1" fill="black" /><circle cx="8" cy="96" r="1" fill="black" /></svg>