<?xml version='1.0' encoding='utf-8'?>
<svg xmlns="http://www.w3.org/2000/svg" version="1.1" width="15cm" height="256cm" viewBox="2 1 15 256"><rect x="2" y="1" width="15" height="256" fill="white" /><path d="M 0 0 L 1 1 L 2 2" stroke="black" fill="none" stroke-width="1" /><path d="M 2 2 L 3 3 L 3 4 L 4 5 L 5 6 L 5 7 L 6 8" stroke="black" fill="none" stroke-width="1" /><path d="M 6 8 L 6 9 L 7 10 L 7 11 L 7 12 L 7 13 L 8 14 L 8 15 L 8 16 L 9 17 L 9 18 L 9 19 L 9 20 L 10 21 L 10 22 L 10 23 L 11 24 L 11 25 L 11 26 L 11 27 L 12 28 L 12 29 L 12 30 L 13 31 L 13 32 L 13 33 L 13 34 L 14 35 L 14 36" stroke="black" fill="none" stroke-width="1" /><circle cx="0" cy="0" r="1" fill="black" /><circle cx="2" cy="2" r="1" fill="black" /><circle cx="6" cy="8" r="1" fill="black" /><circle cx="14" cy="36" r="1" fill="black" /></svg>