<?xml version='1.0' encoding='utf-8'?>
<svg xmlns="http://www.w3.org/2000/svg" version="1.1" width="8cm" height="257cm" viewBox="1 -128 8 257"><rect x="1" y="-128" width="8" height="257" fill="white" /><path d="M 0 126 L 1 126 L 2 126" stroke="black" fill="none" stroke-width="1" /><path d="M 2 126 L 2 125 L 3 124 L 3 123 L 4 122" stroke="black" fill="none" stroke-width="1" /><path d="M 4 122 L 4 121 L 4 120 L 5 119 L 5 118 L 5 117 L 5 116 L 5 115 L 6 114 L 6 113 L 6 112 L 6 111 L 6 110 L 7 109 L 7 108 L 7 107 L 7 106 L 7 105 L 8 104 L 8 103 L 8 102" stroke="black" fill="none" stroke-width="1" /><circle cx="0" cy="126" r="1" fill="black" /><circle cx="2" cy="126" r="1" fill="black" /><circle cx="4" cy="122" r="1" fill="black" /><circle cx="8" cy="102" r="1" fill="black" /></svg>