<?xml version='1.0' encoding='utf-8'?>
<svg xmlns="http://www.w3.org/2000/svg" version="1.1" width="8cm" height="257cm" viewBox="1 -128 8 257"><rect x="1" y="-128" width="8" height="257" fill="white" /><path d="M 0 126 L 1 125 L 2 124" stroke="black" fill="none" stroke-width="1" /><path d="M 2 124 L 2 123 L 2 122 L 2 121 L 3 120 L 3 119 L 3 118 L 3 117 L 3 116 L 3 115 L 4 114 L 4 113 L 4 112" stroke="black" fill="none" stroke-width="1" /><path d="M 4 112 L 4 111 L 4 110 L 4 109 L 4 108 L 4 107 L 4 106 L 5 105 L 5 104 L 5 103 L 5 102 L 5 101 L 5 100 L 5 99 L 5 98 L 5 97 L 5 96 L 5 95 L 5 94 L 6 93 L 6 92 L 6 91 L 6 90 L 6 89 L 6 88 L 6 87 L 6 86 L 6 85 L 6 84 L 6 83 L 6 82 L 6 81 L 7 80 L 7 79 L 7 78 L 7 77 L 7 76 L 7 75 L 7 74 L 7 73 L 7 72 L 7 71 L 7 70 L 7 69 L 8 68 L 8 67 L 8 66 L 8 65 L 8 64 L 8 63 L 8 62" stroke="black" fill="none" stroke-width="1" /><circle cx="0" cy="126" r="1" fill="black" /><circle cx="2" cy="124" r="1" fill="black" /><circle cx="4" cy="112" r="1" fill="black" /><circle cx="8" cy="62" r="1" fill="black" /></svg>