<?xml version='1.0' encoding='utf-8'?>
<svg xmlns="http://www.w3.org/2000/svg" version="1.1" width="15cm" height="256cm" viewBox="2 1 15 256"><rect x="2" y="1" width="15" height="256" fill="white" /><path d="M 0 0 L 0 1 L 1 2 L 1 3 L 1 4 L 2 5 L 2 6" stroke="black" fill="none" stroke-width="1" /><path d="M 2 6 L 2 7 L 3 8 L 3 9 L 3 10 L 4 11 L 4 12 L 4 13 L 5 14 L 5 15 L 5 16 L 6 17 L 6 18" stroke="black" fill="none" stroke-width="1" /><path d="M 6 18 L 6 19 L 6 20 L 6 21 L 6 22 L 7 23 L 7 24 L 7 25 L 7 26 L 7 27 L 7 28 L 7 29 L 7 30 L 8 31 L 8 32 L 8 33 L 8 34 L 8 35 L 8 36 L 8 37 L 8 38 L 9 39 L 9 40 L 9 41 L 9 42 L 9 43 L 9 44 L 9 45 L 9 46 L 10 47 L 10 48 L 10 49 L 10 50 L 10 51 L 10 52 L 10 53 L 10 54 L 10 55 L 11 56 L 11 57 L 11 58 L 11 59 L 11 60 L 11 61 L 11 62 L 11 63 L 12 64 L 12 65 L 12 66 L 12 67 L 12 68 L 12 69 L 12 70 L 12 71 L 13 72 L 13 73 L 13 74 L 13 75 L 13 76 L 13 77 L 13 78 L 13 79 L 14 80 L 14 81 L 14 82 L 14 83 L 14 84" stroke="black" fill="none" stroke-width="1" /><circle cx="0" cy="0" r="1" fill="black" /><circle cx="2" cy="6" r="1" fill="black" /><circle cx="6" cy="18" r="1" fill="black" /><circle cx="14" cy="84" r="1" fill="black" /></svg>