<?xml version='1.0' encoding='utf-8'?>
<svg xmlns="http://www.w3.org/2000/svg" version="1.1" width="8cm" height="257cm" viewBox="1 -128 8 257"><rect x="1" y="-128" width="8" height="257" fill="white" /><path d="M 0 126 L 1 126 L 2 126" stroke="black" fill="none" stroke-width="1" /><path d="M 2 126 L 2 125 L 2 124 L 2 123 L 3 122 L 3 121 L 3 120 L 3 119 L 3 118 L 3 117 L 4 116 L 4 115 L 4 114" stroke="black" fill="none" stroke-width="1" /><path d="M 4 114 L 4 113 L 4 112 L 4 111 L 5 110 L 5 109 L 5 108 L 5 107 L 5 106 L 5 105 L 5 104 L 6 103 L 6 102 L 6 101 L 6 100 L 6 99 L 6 98 L 6 97 L 7 96 L 7 95 L 7 94 L 7 93 L 7 92 L 7 91 L 7 90 L 8 89 L 8 88 L 8 87 L 8 86" stroke="black" fill="none" stroke-width="1" /><circle cx="0" cy="126" r="1" fill="black" /><circle cx="2" cy="126" r="1" fill="black" /><circle cx="4" cy="114" r="1" fill="black" /><circle cx="8" cy="86" r="1" fill="black" /></svg>