<?xml version='1.0' encoding='utf-8'?>
<svg xmlns="http://www.w3.org/2000/svg" version="1.1" width="15cm" height="256cm" viewBox="2 1 15 256"><rect x="2" y="1" width="15" height="256" fill="white" /><path d="M 0 0 L 0 1 L 1 2 L 1 3 L 1 4 L 2 5 L 2 6" stroke="black" fill="none" stroke-width="1" /><path d="M 2 6 L 2 7 L 3 8 L 3 9 L 3 10 L 4 11 L 4 12 L 4 13 L 5 14 L 5 15 L 5 16 L 6 17 L 6 18" stroke="black" fill="none" stroke-width="1" /><path d="M 6 18 L 6 19 L 6 20 L 6 21 L 7 22 L 7 23 L 7 24 L 7 25 L 7 26 L 7 27 L 8 28 L 8 29 L 8 30 L 8 31 L 8 32 L 8 33 L 8 34 L 9 35 L 9 36 L 9 37 L 9 38 L 9 39 L 9 40 L 10 41 L 10 42 L 10 43 L 10 44 L 10 45 L 10 46 L 10 47 L 11 48 L 11 49 L 11 50 L 11 51 L 11 52 L 11 53 L 12 54 L 12 55 L 12 56 L 12 57 L 12 58 L 12 59 L 12 60 L 13 61 L 13 62 L 13 63 L 13 64 L 13 65 L 13 66 L 14 67 L 14 68 L 14 69 L 14 70" stroke="black" fill="none" stroke-width="1" /><circle cx="0" cy="0" r="1" fill="black" /><circle cx="2" cy="6" r="1" fill="black" /><circle cx="6" cy="18" r="1" fill="black" /><circle cx="14" cy="70" r="1" fill="black" /></svg>