<?xml version='1.0' encoding='utf-8'?>
<svg xmlns="http://www.w3.org/2000/svg" version="1.1" width="15cm" height="256cm" viewBox="2 1 15 256"><rect x="2" y="1" width="15" height="256" fill="white" /><path d="M 0 0 L 1 0 L 2 0" stroke="black" fill="none" stroke-width="1" /><path d="M 2 0 L 2 1 L 3 2 L 3 3 L 4 4 L 4 5 L 5 6 L 5 7 L 6 8" stroke="black" fill="none" stroke-width="1" /><path d="M 6 8 L 6 9 L 6 10 L 7 11 L 7 12 L 7 13 L 7 14 L 7 15 L 8 16 L 8 17 L 8 18 L 8 19 L 8 20 L 8 21 L 9 22 L 9 23 L 9 24 L 9 25 L 9 26 L 10 27 L 10 28 L 10 29 L 10 30 L 10 31 L 11 32 L 11 33 L 11 34 L 11 35 L 11 36 L 12 37 L 12 38 L 12 39 L 12 40 L 12 41 L 12 42 L 13 43 L 13 44 L 13 45 L 13 46 L 13 47 L 14 48 L 14 49 L 14 50" stroke="black" fill="none" stroke-width="1" /><circle cx="0" cy="0" r="1" fill="black" /><circle cx="2" cy="0" r="1" fill="black" /><circle cx="6" cy="8" r="1" fill="black" /><circle cx="14" cy="50" r="1" fill="black" /></svg>