<?xml version='1.0' encoding='utf-8'?>
<svg xmlns="http://www.w3.org/2000/svg" version="1.1" width="15cm" height="256cm" viewBox="2 1 15 256"><rect x="2" y="1" width="15" height="256" fill="white" /><path d="M 0 0 L 1 0 L 2 0" stroke="black" fill="none" stroke-width="1" /><path d="M 2 0 L 2 1 L 3 2 L 3 3 L 4 4 L 4 5 L 5 6 L 5 7 L 6 8" stroke="black" fill="none" stroke-width="1" /><path d="M 6 8 L 6 9 L 7 10 L 7 11 L 7 12 L 8 13 L 8 14 L 8 15 L 9 16 L 9 17 L 9 18 L 10 19 L 10 20 L 10 21 L 11 22 L 11 23 L 11 24 L 12 25 L 12 26 L 12 27 L 13 28 L 13 29 L 13 30 L 14 31 L 14 32" stroke="black" fill="none" stroke-width="1" /><circle cx="0" cy="0" r="1" fill="black" /><circle cx="2" cy="0" r="1" fill="black" /><circle cx="6" cy="8" r="1" fill="black" /><circle cx="14" cy="32" r="1" fill="black" /></svg>