<?xml version='1.0' encoding='utf-8'?>
<svg xmlns="http://www.w3.org/2000/svg" version="1.1" width="15cm" height="256cm" viewBox="2 1 15 256"><rect x="2" y="1" width="15" height="256" fill="white" /><path d="M 0 0 L 1 0 L 2 0" stroke="black" fill="none" stroke-width="1" /><path d="M 2 0 L 3 0 L 4 0 L 5 0 L 6 0" stroke="black" fill="none" stroke-width="1" /><path d="M 6 0 L 6 1 L 7 2 L 7 3 L 8 4 L 8 5 L 9 6 L 9 7 L 10 8 L 10 9 L 10 10 L 11 11 L 11 12 L 12 13 L 12 14 L 13 15 L 13 16 L 14 17 L 14 18" stroke="black" fill="none" stroke-width="1" /><circle cx="0" cy="0" r="1" fill="black" /><circle cx="2" cy="0" r="1" fill="black" /><circle cx="6" cy="0" r="1" fill="black" /><circle cx="14" cy="18" r="1" fill="black" /></svg>