<?xml version='1.0' encoding='utf-8'?>
<svg xmlns="http://www.w3.org/2000/svg" version="1.1" width="15cm" height="256cm" viewBox="2 1 15 256"><rect x="2" y="1" width="15" height="256" fill="white" /><path d="M 0 0 L 1 1 L 2 2" stroke="black" fill="none" stroke-width="1" /><path d="M 2 2 L 2 3 L 3 4 L 3 5 L 4 6 L 4 7 L 5 8 L 5 9 L 6 10" stroke="black" fill="none" stroke-width="1" /><path d="M 6 10 L 6 11 L 6 12 L 7 13 L 7 14 L 7 15 L 7 16 L 7 17 L 8 18 L 8 19 L 8 20 L 8 21 L 8 22 L 8 23 L 9 24 L 9 25 L 9 26 L 9 27 L 9 28 L 10 29 L 10 30 L 10 31 L 10 32 L 10 33 L 11 34 L 11 35 L 11 36 L 11 37 L 11 38 L 12 39 L 12 40 L 12 41 L 12 42 L 12 43 L 12 44 L 13 45 L 13 46 L 13 47 L 13 48 L 13 49 L 14 50 L 14 51 L 14 52" stroke="black" fill="none" stroke-width="1" /><circle cx="0" cy="0" r="1" fill="black" /><circle cx="2" cy="2" r="1" fill="black" /><circle cx="6" cy="10" r="1" fill="black" /><circle cx="14" cy="52" r="1" fill="black" /></svg>