<?xml version='1.0' encoding='utf-8'?>
<svg xmlns="http://www.w3.org/2000/svg" version="1.1" width="8cm" height="257cm" viewBox="1 -128 8 257"><rect x="1" y="-128" width="8" height="257" fill="white" /><path d="M 0 126 L 0 125 L 1 124 L 1 123 L 2 122" stroke="black" fill="none" stroke-width="1" /><path d="M 2 122 L 2 121 L 2 120 L 2 119 L 2 118 L 3 117 L 3 116 L 3 115 L 3 114 L 3 113 L 3 112 L 3 111 L 3 110 L 4 109 L 4 108 L 4 107 L 4 106" stroke="black" fill="none" stroke-width="1" /><path d="M 4 106 L 4 105 L 4 104 L 4 103 L 4 102 L 4 101 L 4 100 L 4 99 L 4 98 L 5 97 L 5 96 L 5 95 L 5 94 L 5 93 L 5 92 L 5 91 L 5 90 L 5 89 L 5 88 L 5 87 L 5 86 L 5 85 L 5 84 L 5 83 L 5 82 L 5 81 L 6 80 L 6 79 L 6 78 L 6 77 L 6 76 L 6 75 L 6 74 L 6 73 L 6 72 L 6 71 L 6 70 L 6 69 L 6 68 L 6 67 L 6 66 L 6 65 L 6 64 L 7 63 L 7 62 L 7 61 L 7 60 L 7 59 L 7 58 L 7 57 L 7 56 L 7 55 L 7 54 L 7 53 L 7 52 L 7 51 L 7 50 L 7 49 L 7 48 L 7 47 L 8 46 L 8 45 L 8 44 L 8 43 L 8 42 L 8 41 L 8 40 L 8 39 L 8 38" stroke="black" fill="none" stroke-width="1" /><circle cx="0" cy="126" r="1" fill="black" /><circle cx="2" cy="122" r="1" fill="black" /><circle cx="4" cy="106" r="1" fill="black" /><circle cx="8" cy="38" r="1" fill="black" /></svg>