<?xml version='1.0' encoding='utf-8'?>
<svg xmlns="http://www.w3.org/2000/svg" version="1.1" width="15cm" height="256cm" viewBox="2 1 15 256"><rect x="2" y="1" width="15" height="256" fill="white" /><path d="M 0 0 L 1 1 L 2 2" stroke="black" fill="none" stroke-width="1" /><path d="M 2 2 L 3 3 L 3 4 L 4 5 L 5 6 L 5 7 L 6 8" stroke="black" fill="none" stroke-width="1" /><path d="M 6 8 L 6 9 L 7 10 L 7 11 L 7 12 L 8 13 L 8 14 L 9 15 L 9 16 L 9 17 L 10 18 L 10 19 L 10 20 L 11 21 L 11 22 L 11 23 L 12 24 L 12 25 L 13 26 L 13 27 L 13 28 L 14 29 L 14 30" stroke="black" fill="none" stroke-width="1" /><circle cx="0" cy="0" r="1" fill="black" /><circle cx="2" cy="2" r="1" fill="black" /><circle cx="6" cy="8" r="1" fill="black" /><circle cx="14" cy="30" r="1" fill="black" /></svg>