<?xml version='1.0' encoding='utf-8'?>
<svg xmlns="http://www.w3.org/2000/svg" version="1.1" width="15cm" height="256cm" viewBox="2 1 15 256"><rect x="2" y="1" width="15" height="256" fill="white" /><path d="M 0 0 L 1 1 L 2 2" stroke="black" fill="none" stroke-width="1" /><path d="M 2 2 L 2 3 L 3 4 L 3 5 L 4 6 L 4 7 L 4 8 L 5 9 L 5 10 L 6 11 L 6 12" stroke="black" fill="none" stroke-width="1" /><path d="M 6 12 L 6 13 L 7 14 L 7 15 L 7 16 L 8 17 L 8 18 L 8 19 L 8 20 L 9 21 L 9 22 L 9 23 L 10 24 L 10 25 L 10 26 L 11 27 L 11 28 L 11 29 L 12 30 L 12 31 L 12 32 L 12 33 L 13 34 L 13 35 L 13 36 L 14 37 L 14 38" stroke="black" fill="none" stroke-width="1" /><circle cx="0" cy="0" r="1" fill="black" /><circle cx="2" cy="2" r="1" fill="black" /><circle cx="6" cy="12" r="1" fill="black" /><circle cx="14" cy="38" r="1" fill="black" /></svg>