<?xml version='1.0' encoding='utf-8'?>
<svg xmlns="http://www.w3.org/2000/svg" version="1.1" width="15cm" height="256cm" viewBox="2 1 15 256"><rect x="2" y="1" width="15" height="256" fill="white" /><path d="M 0 0 L 1 1 L 2 2" stroke="black" fill="none" stroke-width="1" /><path d="M 2 2 L 3 2 L 4 3 L 5 3 L 6 4" stroke="black" fill="none" stroke-width="1" /><path d="M 6 4 L 6 5 L 7 6 L 7 7 L 8 8 L 8 9 L 9 10 L 9 11 L 10 12 L 10 13 L 11 14 L 11 15 L 12 16 L 12 17 L 13 18 L 13 19 L 14 20" stroke="black" fill="none" stroke-width="1" /><circle cx="0" cy="0" r="1" fill="black" /><circle cx="2" cy="2" r="1" fill="black" /><circle cx="6" cy="4" r="1" fill="black" /><circle cx="14" cy="20" r="1" fill="black" /></svg>