<?xml version='1.0' encoding='utf-8'?>
<svg xmlns="http://www.w3.org/2000/svg" version="1.1" width="15cm" height="256cm" viewBox="2 1 15 256"><rect x="2" y="1" width="15" height="256" fill="white" /><path d="M 0 0 L 1 1 L 2 2" stroke="black" fill="none" stroke-width="1" /><path d="M 2 2 L 3 3 L 4 4 L 5 5 L 6 6" stroke="black" fill="none" stroke-width="1" /><path d="M 6 6 L 6 7 L 7 8 L 7 9 L 8 10 L 8 11 L 9 12 L 9 13 L 10 14 L 10 15 L 11 16 L 11 17 L 12 18 L 12 19 L 13 20 L 13 21 L 14 22" stroke="black" fill="none" stroke-width="1" /><circle cx="0" cy="0" r="1" fill="black" /><circle cx="2" cy="2" r="1" fill="black" /><circle cx="6" cy="6" r="1" fill="black" /><circle cx="14" cy="22" r="1" fill="black" /></svg>