<?xml version='1.0' encoding='utf-8'?>
<svg xmlns="http://www.w3.org/2000/svg" version="1.1" width="8cm" height="257cm" viewBox="1 -128 8 257"><rect x="1" y="-128" width="8" height="257" fill="white" /><path d="M 0 126 L 0 125 L 1 124 L 1 123 L 2 122" stroke="black" fill="none" stroke-width="1" /><path d="M 2 122 L 2 121 L 2 120 L 2 119 L 2 118 L 2 117 L 3 116 L 3 115 L 3 114 L 3 113 L 3 112 L 3 111 L 3 110 L 3 109 L 3 108 L 3 107 L 3 106 L 4 105 L 4 104 L 4 103 L 4 102 L 4 101 L 4 100" stroke="black" fill="none" stroke-width="1" /><path d="M 4 100 L 4 99 L 4 98 L 4 97 L 4 96 L 4 95 L 4 94 L 4 93 L 4 92 L 4 91 L 4 90 L 4 89 L 5 88 L 5 87 L 5 86 L 5 85 L 5 84 L 5 83 L 5 82 L 5 81 L 5 80 L 5 79 L 5 78 L 5 77 L 5 76 L 5 75 L 5 74 L 5 73 L 5 72 L 5 71 L 5 70 L 5 69 L 5 68 L 5 67 L 5 66 L 6 65 L 6 64 L 6 63 L 6 62 L 6 61 L 6 60 L 6 59 L 6 58 L 6 57 L 6 56 L 6 55 L 6 54 L 6 53 L 6 52 L 6 51 L 6 50 L 6 49 L 6 48 L 6 47 L 6 46 L 6 45 L 6 44 L 6 43 L 7 42 L 7 41 L 7 40 L 7 39 L 7 38 L 7 37 L 7 36 L 7 35 L 7 34 L 7 33 L 7 32 L 7 31 L 7 30 L 7 29 L 7 28 L 7 27 L 7 26 L 7 25 L 7 24 L 7 23 L 7 22 L 7 21 L 7 20 L 8 19 L 8 18 L 8 17 L 8 16 L 8 15 L 8 14 L 8 13 L 8 12 L 8 11 L 8 10 L 8 9 L 8 8" stroke="black" fill="none" stroke-width="1" /><circle cx="0" cy="126" r="1" fill="black" /><circle cx="2" cy="122" r="1" fill="black" /><circle cx="4" cy="100" r="1" fill="black" /><circle cx="8" cy="8" r="1" fill="black" /></svg>