<?xml version='1.0' encoding='utf-8'?>
<svg xmlns="http://www.w3.org/2000/svg" version="1.1" width="8cm" height="257cm" viewBox="1 -128 8 257"><rect x="1" y="-128" width="8" height="257" fill="white" /><path d="M 0 128 L 1 127 L 2 126" stroke="black" fill="none" stroke-width="1" /><path d="M 2 126 L 3 125 L 4 124" stroke="black" fill="none" stroke-width="1" /><path d="M 4 124 L 4 123 L 4 122 L 5 121 L 5 120 L 5 119 L 5 118 L 6 117 L 6 116 L 6 115 L 6 114 L 7 113 L 7 112 L 7 111 L 7 110 L 8 109 L 8 108" stroke="black" fill="none" stroke-width="1" /><circle cx="0" cy="128" r="1" fill="black" /><circle cx="2" cy="126" r="1" fill="black" /><circle cx="4" cy="124" r="1" fill="black" /><circle cx="8" cy="108" r="1" fill="black" /></svg>