<?xml version='1.0' encoding='utf-8'?>
<svg xmlns="http://www.w3.org/2000/svg" version="1.1" width="15cm" height="256cm" viewBox="2 1 15 256"><rect x="2" y="1" width="15" height="256" fill="white" /><path d="M 0 2 L 0 3 L 1 4 L 1 5 L 2 6" stroke="black" fill="none" stroke-width="1" /><path d="M 2 6 L 2 7 L 2 8 L 3 9 L 3 10 L 3 11 L 3 12 L 4 13 L 4 14 L 4 15 L 4 16 L 5 17 L 5 18 L 5 19 L 5 20 L 6 21 L 6 22" stroke="black" fill="none" stroke-width="1" /><path d="M 6 22 L 6 23 L 6 24 L 6 25 L 7 26 L 7 27 L 7 28 L 7 29 L 7 30 L 7 31 L 8 32 L 8 33 L 8 34 L 8 35 L 8 36 L 8 37 L 8 38 L 9 39 L 9 40 L 9 41 L 9 42 L 9 43 L 9 44 L 10 45 L 10 46 L 10 47 L 10 48 L 10 49 L 10 50 L 10 51 L 11 52 L 11 53 L 11 54 L 11 55 L 11 56 L 11 57 L 12 58 L 12 59 L 12 60 L 12 61 L 12 62 L 12 63 L 12 64 L 13 65 L 13 66 L 13 67 L 13 68 L 13 69 L 13 70 L 14 71 L 14 72 L 14 73 L 14 74" stroke="black" fill="none" stroke-width="1" /><circle cx="0" cy="2" r="1" fill="black" /><circle cx="2" cy="6" r="1" fill="black" /><circle cx="6" cy="22" r="1" fill="black" /><circle cx="14" cy="74" r="1" fill="black" /></svg>