<?xml version='1.0' encoding='utf-8'?>
<svg xmlns="http://www.w3.org/2000/svg" version="1.1" width="15cm" height="256cm" viewBox="2 1 15 256"><rect x="2" y="1" width="15" height="256" fill="white" /><path d="M 0 2 L 0 3 L 1 4 L 1 5 L 2 6" stroke="black" fill="none" stroke-width="1" /><path d="M 2 6 L 2 7 L 2 8 L 3 9 L 3 10 L 3 11 L 3 12 L 3 13 L 4 14 L 4 15 L 4 16 L 4 17 L 4 18 L 5 19 L 5 20 L 5 21 L 5 22 L 5 23 L 6 24 L 6 25 L 6 26" stroke="black" fill="none" stroke-width="1" /><path d="M 6 26 L 6 27 L 6 28 L 6 29 L 6 30 L 7 31 L 7 32 L 7 33 L 7 34 L 7 35 L 7 36 L 7 37 L 7 38 L 7 39 L 8 40 L 8 41 L 8 42 L 8 43 L 8 44 L 8 45 L 8 46 L 8 47 L 8 48 L 8 49 L 9 50 L 9 51 L 9 52 L 9 53 L 9 54 L 9 55 L 9 56 L 9 57 L 9 58 L 10 59 L 10 60 L 10 61 L 10 62 L 10 63 L 10 64 L 10 65 L 10 66 L 10 67 L 11 68 L 11 69 L 11 70 L 11 71 L 11 72 L 11 73 L 11 74 L 11 75 L 11 76 L 12 77 L 12 78 L 12 79 L 12 80 L 12 81 L 12 82 L 12 83 L 12 84 L 12 85 L 12 86 L 13 87 L 13 88 L 13 89 L 13 90 L 13 91 L 13 92 L 13 93 L 13 94 L 13 95 L 14 96 L 14 97 L 14 98 L 14 99 L 14 100" stroke="black" fill="none" stroke-width="1" /><circle cx="0" cy="2" r="1" fill="black" /><circle cx="2" cy="6" r="1" fill="black" /><circle cx="6" cy="26" r="1" fill="black" /><circle cx="14" cy="100" r="1" fill="black" /></svg>