<?xml version='1.0' encoding='utf-8'?>
<svg xmlns="http://www.w3.org/2000/svg" version="1.1" width="8cm" height="257cm" viewBox="1 -128 8 257"><rect x="1" y="-128" width="8" height="257" fill="white" /><path d="M 0 128 L 1 127 L 2 126" stroke="black" fill="none" stroke-width="1" /><path d="M 2 126 L 2 125 L 2 124 L 3 123 L 3 122 L 3 121 L 3 120 L 4 119 L 4 118" stroke="black" fill="none" stroke-width="1" /><path d="M 4 118 L 4 117 L 4 116 L 4 115 L 4 114 L 4 113 L 5 112 L 5 111 L 5 110 L 5 109 L 5 108 L 5 107 L 5 106 L 5 105 L 5 104 L 5 103 L 5 102 L 6 101 L 6 100 L 6 99 L 6 98 L 6 97 L 6 96 L 6 95 L 6 94 L 6 93 L 6 92 L 6 91 L 7 90 L 7 89 L 7 88 L 7 87 L 7 86 L 7 85 L 7 84 L 7 83 L 7 82 L 7 81 L 7 80 L 8 79 L 8 78 L 8 77 L 8 76 L 8 75 L 8 74" stroke="black" fill="none" stroke-width="1" /><circle cx="0" cy="128" r="1" fill="black" /><circle cx="2" cy="126" r="1" fill="black" /><circle cx="4" cy="118" r="1" fill="black" /><circle cx="8" cy="74" r="1" fill="black" /></svg>