<?xml version='1.0' encoding='utf-8'?>
<svg xmlns="http://www.w3.org/2000/svg" version="1.1" width="8cm" height="257cm" viewBox="1 -128 8 257"><rect x="1" y="-128" width="8" height="257" fill="white" /><path d="M 0 128 L 1 128 L 2 128" stroke="black" fill="none" stroke-width="1" /><path d="M 2 128 L 3 128 L 4 128" stroke="black" fill="none" stroke-width="1" /><path d="M 4 128 L 4 127 L 4 126 L 5 125 L 5 124 L 5 123 L 5 122 L 6 121 L 6 120 L 6 119 L 6 118 L 7 117 L 7 116 L 7 115 L 7 114 L 8 113 L 8 112" stroke="black" fill="none" stroke-width="1" /><circle cx="0" cy="128" r="1" fill="black" /><circle cx="2" cy="128" r="1" fill="black" /><circle cx="4" cy="128" r="1" fill="black" /><circle cx="8" cy="112" r="1" fill="black" /></svg>