<?xml version='1.0' encoding='utf-8'?>
<svg xmlns="http://www.w3.org/2000/svg" version="1.1" width="15cm" height="256cm" viewBox="2 1 15 256"><rect x="2" y="1" width="15" height="256" fill="white" /><path d="M 0 2 L 0 3 L 1 4 L 1 5 L 1 6 L 2 7 L 2 8" stroke="black" fill="none" stroke-width="1" /><path d="M 2 8 L 2 9 L 3 10 L 3 11 L 3 12 L 3 13 L 4 14 L 4 15 L 4 16 L 5 17 L 5 18 L 5 19 L 5 20 L 6 21 L 6 22" stroke="black" fill="none" stroke-width="1" /><path d="M 6 22 L 6 23 L 6 24 L 6 25 L 6 26 L 7 27 L 7 28 L 7 29 L 7 30 L 7 31 L 7 32 L 7 33 L 7 34 L 7 35 L 8 36 L 8 37 L 8 38 L 8 39 L 8 40 L 8 41 L 8 42 L 8 43 L 9 44 L 9 45 L 9 46 L 9 47 L 9 48 L 9 49 L 9 50 L 9 51 L 9 52 L 10 53 L 10 54 L 10 55 L 10 56 L 10 57 L 10 58 L 10 59 L 10 60 L 10 61 L 11 62 L 11 63 L 11 64 L 11 65 L 11 66 L 11 67 L 11 68 L 11 69 L 11 70 L 12 71 L 12 72 L 12 73 L 12 74 L 12 75 L 12 76 L 12 77 L 12 78 L 13 79 L 13 80 L 13 81 L 13 82 L 13 83 L 13 84 L 13 85 L 13 86 L 13 87 L 14 88 L 14 89 L 14 90 L 14 91 L 14 92" stroke="black" fill="none" stroke-width="1" /><circle cx="0" cy="2" r="1" fill="black" /><circle cx="2" cy="8" r="1" fill="black" /><circle cx="6" cy="22" r="1" fill="black" /><circle cx="14" cy="92" r="1" fill="black" /></svg>