<?xml version='1.0' encoding='utf-8'?>
<svg xmlns="http://www.w3.org/2000/svg" version="1.1" width="8cm" height="257cm" viewBox="1 -128 8 257"><rect x="1" y="-128" width="8" height="257" fill="white" /><path d="M 0 128 L 1 128 L 2 128" stroke="black" fill="none" stroke-width="1" /><path d="M 2 128 L 2 127 L 2 126 L 3 125 L 3 124 L 3 123 L 3 122 L 3 121 L 4 120 L 4 119 L 4 118" stroke="black" fill="none" stroke-width="1" /><path d="M 4 118 L 4 117 L 4 116 L 4 115 L 5 114 L 5 113 L 5 112 L 5 111 L 5 110 L 5 109 L 6 108 L 6 107 L 6 106 L 6 105 L 6 104 L 6 103 L 6 102 L 7 101 L 7 100 L 7 99 L 7 98 L 7 97 L 7 96 L 8 95 L 8 94 L 8 93 L 8 92" stroke="black" fill="none" stroke-width="1" /><circle cx="0" cy="128" r="1" fill="black" /><circle cx="2" cy="128" r="1" fill="black" /><circle cx="4" cy="118" r="1" fill="black" /><circle cx="8" cy="92" r="1" fill="black" /></svg>