<?xml version='1.0' encoding='utf-8'?>
<svg xmlns="http://www.w3.org/2000/svg" version="1.1" width="15cm" height="256cm" viewBox="2 1 15 256"><rect x="2" y="1" width="15" height="256" fill="white" /><path d="M 0 2 L 0 3 L 1 4 L 1 5 L 1 6 L 2 7 L 2 8" stroke="black" fill="none" stroke-width="1" /><path d="M 2 8 L 2 9 L 2 10 L 3 11 L 3 12 L 3 13 L 3 14 L 3 15 L 4 16 L 4 17 L 4 18 L 4 19 L 4 20 L 5 21 L 5 22 L 5 23 L 5 24 L 5 25 L 6 26 L 6 27 L 6 28" stroke="black" fill="none" stroke-width="1" /><path d="M 6 28 L 6 29 L 6 30 L 6 31 L 6 32 L 6 33 L 7 34 L 7 35 L 7 36 L 7 37 L 7 38 L 7 39 L 7 40 L 7 41 L 7 42 L 7 43 L 8 44 L 8 45 L 8 46 L 8 47 L 8 48 L 8 49 L 8 50 L 8 51 L 8 52 L 8 53 L 8 54 L 9 55 L 9 56 L 9 57 L 9 58 L 9 59 L 9 60 L 9 61 L 9 62 L 9 63 L 9 64 L 10 65 L 10 66 L 10 67 L 10 68 L 10 69 L 10 70 L 10 71 L 10 72 L 10 73 L 10 74 L 10 75 L 11 76 L 11 77 L 11 78 L 11 79 L 11 80 L 11 81 L 11 82 L 11 83 L 11 84 L 11 85 L 12 86 L 12 87 L 12 88 L 12 89 L 12 90 L 12 91 L 12 92 L 12 93 L 12 94 L 12 95 L 12 96 L 13 97 L 13 98 L 13 99 L 13 100 L 13 101 L 13 102 L 13 103 L 13 104 L 13 105 L 13 106 L 14 107 L 14 108 L 14 109 L 14 110 L 14 111 L 14 112" stroke="black" fill="none" stroke-width="1" /><circle cx="0" cy="2" r="1" fill="black" /><circle cx="2" cy="8" r="1" fill="black" /><circle cx="6" cy="28" r="1" fill="black" /><circle cx="14" cy="112" r="1" fill="black" /></svg>