<?xml version='1.0' encoding='utf-8'?>
<svg xmlns="http://www.w3.org/2000/svg" version="1.1" width="15cm" height="256cm" viewBox="2 1 15 256"><rect x="2" y="1" width="15" height="256" fill="white" /><path d="M 0 2 L 1 2 L 2 2" stroke="black" fill="none" stroke-width="1" /><path d="M 2 2 L 2 3 L 3 4 L 3 5 L 3 6 L 4 7 L 4 8 L 4 9 L 5 10 L 5 11 L 5 12 L 6 13 L 6 14" stroke="black" fill="none" stroke-width="1" /><path d="M 6 14 L 6 15 L 6 16 L 7 17 L 7 18 L 7 19 L 7 20 L 7 21 L 7 22 L 8 23 L 8 24 L 8 25 L 8 26 L 8 27 L 9 28 L 9 29 L 9 30 L 9 31 L 9 32 L 9 33 L 10 34 L 10 35 L 10 36 L 10 37 L 10 38 L 11 39 L 11 40 L 11 41 L 11 42 L 11 43 L 11 44 L 12 45 L 12 46 L 12 47 L 12 48 L 12 49 L 13 50 L 13 51 L 13 52 L 13 53 L 13 54 L 13 55 L 14 56 L 14 57 L 14 58" stroke="black" fill="none" stroke-width="1" /><circle cx="0" cy="2" r="1" fill="black" /><circle cx="2" cy="2" r="1" fill="black" /><circle cx="6" cy="14" r="1" fill="black" /><circle cx="14" cy="58" r="1" fill="black" /></svg>