<?xml version='1.0' encoding='utf-8'?>
<svg xmlns="http://www.w3.org/2000/svg" version="1.1" width="15cm" height="256cm" viewBox="2 1 15 256"><rect x="2" y="1" width="15" height="256" fill="white" /><path d="M 0 2 L 1 2 L 2 2" stroke="black" fill="none" stroke-width="1" /><path d="M 2 2 L 2 3 L 3 4 L 3 5 L 3 6 L 4 7 L 4 8 L 4 9 L 5 10 L 5 11 L 5 12 L 6 13 L 6 14" stroke="black" fill="none" stroke-width="1" /><path d="M 6 14 L 6 15 L 7 16 L 7 17 L 7 18 L 7 19 L 8 20 L 8 21 L 8 22 L 8 23 L 9 24 L 9 25 L 9 26 L 9 27 L 10 28 L 10 29 L 10 30 L 11 31 L 11 32 L 11 33 L 11 34 L 12 35 L 12 36 L 12 37 L 12 38 L 13 39 L 13 40 L 13 41 L 13 42 L 14 43 L 14 44" stroke="black" fill="none" stroke-width="1" /><circle cx="0" cy="2" r="1" fill="black" /><circle cx="2" cy="2" r="1" fill="black" /><circle cx="6" cy="14" r="1" fill="black" /><circle cx="14" cy="44" r="1" fill="black" /></svg>