<?xml version='1.0' encoding='utf-8'?>
<svg xmlns="http://www.w3.org/2000/svg" version="1.1" width="15cm" height="256cm" viewBox="2 1 15 256"><rect x="2" y="1" width="15" height="256" fill="white" /><path d="M 0 2 L 1 2 L 2 2" stroke="black" fill="none" stroke-width="1" /><path d="M 2 2 L 3 2 L 4 3 L 5 3 L 6 4" stroke="black" fill="none" stroke-width="1" /><path d="M 6 4 L 6 5 L 7 6 L 7 7 L 8 8 L 8 9 L 8 10 L 9 11 L 9 12 L 10 13 L 10 14 L 10 15 L 11 16 L 11 17 L 12 18 L 12 19 L 12 20 L 13 21 L 13 22 L 14 23 L 14 24" stroke="black" fill="none" stroke-width="1" /><circle cx="0" cy="2" r="1" fill="black" /><circle cx="2" cy="2" r="1" fill="black" /><circle cx="6" cy="4" r="1" fill="black" /><circle cx="14" cy="24" r="1" fill="black" /></svg>