<?xml version='1.0' encoding='utf-8'?>
<svg xmlns="http://www.w3.org/2000/svg" version="1.1" width="15cm" height="256cm" viewBox="2 1 15 256"><rect x="2" y="1" width="15" height="256" fill="white" /><path d="M 0 2 L 1 3 L 2 4" stroke="black" fill="none" stroke-width="1" /><path d="M 2 4 L 2 5 L 3 6 L 3 7 L 4 8 L 4 9 L 4 10 L 5 11 L 5 12 L 6 13 L 6 14" stroke="black" fill="none" stroke-width="1" /><path d="M 6 14 L 6 15 L 6 16 L 6 17 L 7 18 L 7 19 L 7 20 L 7 21 L 7 22 L 7 23 L 8 24 L 8 25 L 8 26 L 8 27 L 8 28 L 8 29 L 9 30 L 9 31 L 9 32 L 9 33 L 9 34 L 9 35 L 10 36 L 10 37 L 10 38 L 10 39 L 10 40 L 10 41 L 11 42 L 11 43 L 11 44 L 11 45 L 11 46 L 11 47 L 12 48 L 12 49 L 12 50 L 12 51 L 12 52 L 12 53 L 13 54 L 13 55 L 13 56 L 13 57 L 13 58 L 13 59 L 14 60 L 14 61 L 14 62" stroke="black" fill="none" stroke-width="1" /><circle cx="0" cy="2" r="1" fill="black" /><circle cx="2" cy="4" r="1" fill="black" /><circle cx="6" cy="14" r="1" fill="black" /><circle cx="14" cy="62" r="1" fill="black" /></svg>