<?xml version='1.0' encoding='utf-8'?>
<svg xmlns="http://www.w3.org/2000/svg" version="1.1" width="15cm" height="256cm" viewBox="2 1 15 256"><rect x="2" y="1" width="15" height="256" fill="white" /><path d="M 0 2 L 1 3 L 2 4" stroke="black" fill="none" stroke-width="1" /><path d="M 2 4 L 2 5 L 3 6 L 3 7 L 3 8 L 4 9 L 4 10 L 4 11 L 5 12 L 5 13 L 5 14 L 6 15 L 6 16" stroke="black" fill="none" stroke-width="1" /><path d="M 6 16 L 6 17 L 7 18 L 7 19 L 7 20 L 7 21 L 8 22 L 8 23 L 8 24 L 8 25 L 9 26 L 9 27 L 9 28 L 9 29 L 10 30 L 10 31 L 10 32 L 11 33 L 11 34 L 11 35 L 11 36 L 12 37 L 12 38 L 12 39 L 12 40 L 13 41 L 13 42 L 13 43 L 13 44 L 14 45 L 14 46" stroke="black" fill="none" stroke-width="1" /><circle cx="0" cy="2" r="1" fill="black" /><circle cx="2" cy="4" r="1" fill="black" /><circle cx="6" cy="16" r="1" fill="black" /><circle cx="14" cy="46" r="1" fill="black" /></svg>