<?xml version='1.0' encoding='utf-8'?>
<svg xmlns="http://www.w3.org/2000/svg" version="1.1" width="15cm" height="256cm" viewBox="2 1 15 256"><rect x="2" y="1" width="15" height="256" fill="white" /><path d="M 0 2 L 1 3 L 2 4" stroke="black" fill="none" stroke-width="1" /><path d="M 2 4 L 3 4 L 4 5 L 5 5 L 6 6" stroke="black" fill="none" stroke-width="1" /><path d="M 6 6 L 6 7 L 7 8 L 7 9 L 7 10 L 8 11 L 8 12 L 9 13 L 9 14 L 9 15 L 10 16 L 10 17 L 10 18 L 11 19 L 11 20 L 11 21 L 12 22 L 12 23 L 13 24 L 13 25 L 13 26 L 14 27 L 14 28" stroke="black" fill="none" stroke-width="1" /><circle cx="0" cy="2" r="1" fill="black" /><circle cx="2" cy="4" r="1" fill="black" /><circle cx="6" cy="6" r="1" fill="black" /><circle cx="14" cy="28" r="1" fill="black" /></svg>