<?xml version='1.0' encoding='utf-8'?>
<svg xmlns="http://www.w3.org/2000/svg" version="1.1" width="7cm" height="64cm" viewBox="2 1 7 64"><rect x="2" y="1" width="7" height="64" fill="white" /><path d="M 0 2 L 0 3 L 0 4 L 0 5 L 1 6 L 1 7 L 1 8 L 1 9 L 1 10 L 1 11 L 2 12 L 2 13 L 2 14" stroke="black" fill="none" stroke-width="1" /><path d="M 2 14 L 2 15 L 2 16 L 2 17 L 2 18 L 2 19 L 3 20 L 3 21 L 3 22 L 3 23 L 3 24 L 3 25 L 3 26 L 3 27 L 3 28 L 3 29 L 3 30 L 3 31 L 4 32 L 4 33 L 4 34 L 4 35 L 4 36 L 4 37 L 4 38 L 4 39 L 4 40 L 4 41 L 4 42 L 5 43 L 5 44 L 5 45 L 5 46 L 5 47 L 5 48 L 5 49 L 5 50 L 5 51 L 5 52 L 5 53 L 5 54 L 6 55 L 6 56 L 6 57 L 6 58 L 6 59 L 6 60" stroke="black" fill="none" stroke-width="1" /><circle cx="0" cy="2" r="1" fill="black" /><circle cx="2" cy="14" r="1" fill="black" /><circle cx="6" cy="60" r="1" fill="black" /></svg>