<?xml version='1.0' encoding='utf-8'?>
<svg xmlns="http://www.w3.org/2000/svg" version="1.1" width="7cm" height="64cm" viewBox="2 1 7 64"><rect x="2" y="1" width="7" height="64" fill="white" /><path d="M 0 2 L 0 3 L 1 4 L 1 5 L 1 6 L 2 7 L 2 8" stroke="black" fill="none" stroke-width="1" /><path d="M 2 8 L 2 9 L 2 10 L 2 11 L 3 12 L 3 13 L 3 14 L 3 15 L 3 16 L 3 17 L 4 18 L 4 19 L 4 20 L 4 21 L 4 22 L 4 23 L 4 24 L 5 25 L 5 26 L 5 27 L 5 28 L 5 29 L 5 30 L 6 31 L 6 32 L 6 33 L 6 34" stroke="black" fill="none" stroke-width="1" /><circle cx="0" cy="2" r="1" fill="black" /><circle cx="2" cy="8" r="1" fill="black" /><circle cx="6" cy="34" r="1" fill="black" /></svg>