<?xml version='1.0' encoding='utf-8'?>
<svg xmlns="http://www.w3.org/2000/svg" version="1.1" width="7cm" height="64cm" viewBox="2 1 7 64"><rect x="2" y="1" width="7" height="64" fill="white" /><path d="M 0 2 L 0 3 L 1 4 L 1 5 L 1 6 L 2 7 L 2 8" stroke="black" fill="none" stroke-width="1" /><path d="M 2 8 L 2 9 L 2 10 L 2 11 L 2 12 L 3 13 L 3 14 L 3 15 L 3 16 L 3 17 L 3 18 L 3 19 L 3 20 L 4 21 L 4 22 L 4 23 L 4 24 L 4 25 L 4 26 L 4 27 L 4 28 L 5 29 L 5 30 L 5 31 L 5 32 L 5 33 L 5 34 L 5 35 L 5 36 L 6 37 L 6 38 L 6 39 L 6 40" stroke="black" fill="none" stroke-width="1" /><circle cx="0" cy="2" r="1" fill="black" /><circle cx="2" cy="8" r="1" fill="black" /><circle cx="6" cy="40" r="1" fill="black" /></svg>