<?xml version='1.0' encoding='utf-8'?>
<svg xmlns="http://www.w3.org/2000/svg" version="1.1" width="4cm" height="65cm" viewBox="1 -32 4 65"><rect x="1" y="-32" width="4" height="65" fill="white" /><path d="M 0 34 L 0 35 L 1 36 L 1 37 L 1 38 L 2 39 L 2 40" stroke="black" fill="none" stroke-width="1" /><path d="M 2 40 L 2 41 L 2 42 L 2 43 L 2 44 L 3 45 L 3 46 L 3 47 L 3 48 L 3 49 L 3 50 L 3 51 L 3 52 L 4 53 L 4 54 L 4 55 L 4 56" stroke="black" fill="none" stroke-width="1" /><circle cx="0" cy="34" r="1" fill="black" /><circle cx="2" cy="40" r="1" fill="black" /><circle cx="4" cy="56" r="1" fill="black" /></svg>