<?xml version='1.0' encoding='utf-8'?>
<svg xmlns="http://www.w3.org/2000/svg" version="1.1" width="7cm" height="64cm" viewBox="2 1 7 64"><rect x="2" y="1" width="7" height="64" fill="white" /><path d="M 0 0 L 0 1 L 1 2 L 1 3 L 2 4" stroke="black" fill="none" stroke-width="1" /><path d="M 2 4 L 2 5 L 2 6 L 3 7 L 3 8 L 3 9 L 3 10 L 3 11 L 3 12 L 4 13 L 4 14 L 4 15 L 4 16 L 4 17 L 5 18 L 5 19 L 5 20 L 5 21 L 5 22 L 5 23 L 6 24 L 6 25 L 6 26" stroke="black" fill="none" stroke-width="1" /><circle cx="0" cy="0" r="1" fill="black" /><circle cx="2" cy="4" r="1" fill="black" /><circle cx="6" cy="26" r="1" fill="black" /></svg>