<?xml version='1.0' encoding='utf-8'?>
<svg xmlns="http://www.w3.org/2000/svg" version="1.1" width="4cm" height="65cm" viewBox="1 -32 4 65"><rect x="1" y="-32" width="4" height="65" fill="white" /><path d="M 0 30 L 0 29 L 1 28 L 1 27 L 1 26 L 2 25 L 2 24" stroke="black" fill="none" stroke-width="1" /><path d="M 2 24 L 2 23 L 2 22 L 2 21 L 2 20 L 2 19 L 2 18 L 3 17 L 3 16 L 3 15 L 3 14 L 3 13 L 3 12 L 3 11 L 3 10 L 3 9 L 3 8 L 3 7 L 3 6 L 4 5 L 4 4 L 4 3 L 4 2 L 4 1 L 4 0" stroke="black" fill="none" stroke-width="1" /><circle cx="0" cy="30" r="1" fill="black" /><circle cx="2" cy="24" r="1" fill="black" /><circle cx="4" cy="0" r="1" fill="black" /></svg>