<?xml version='1.0' encoding='utf-8'?>
<svg xmlns="http://www.w3.org/2000/svg" version="1.1" width="7cm" height="64cm" viewBox="2 1 7 64"><rect x="2" y="1" width="7" height="64" fill="white" /><path d="M 0 2 L 0 3 L 1 4 L 1 5 L 1 6 L 2 7 L 2 8" stroke="black" fill="none" stroke-width="1" /><path d="M 2 8 L 2 9 L 2 10 L 3 11 L 3 12 L 3 13 L 3 14 L 4 15 L 4 16 L 4 17 L 4 18 L 5 19 L 5 20 L 5 21 L 5 22 L 6 23 L 6 24" stroke="black" fill="none" stroke-width="1" /><circle cx="0" cy="2" r="1" fill="black" /><circle cx="2" cy="8" r="1" fill="black" /><circle cx="6" cy="24" r="1" fill="black" /></svg>