<?xml version='1.0' encoding='utf-8'?>
<svg xmlns="http://www.w3.org/2000/svg" version="1.1" width="4cm" height="65cm" viewBox="1 -32 4 65"><rect x="1" y="-32" width="4" height="65" fill="white" /><path d="M 0 32 L 0 31 L 1 30 L 1 29 L 2 28" stroke="black" fill="none" stroke-width="1" /><path d="M 2 28 L 2 27 L 2 26 L 2 25 L 2 24 L 2 23 L 3 22 L 3 21 L 3 20 L 3 19 L 3 18 L 3 17 L 3 16 L 3 15 L 3 14 L 3 13 L 4 12 L 4 11 L 4 10 L 4 9 L 4 8" stroke="black" fill="none" stroke-width="1" /><circle cx="0" cy="32" r="1" fill="black" /><circle cx="2" cy="28" r="1" fill="black" /><circle cx="4" cy="8" r="1" fill="black" /></svg>